<mxfile host="app.diagrams.net">
  <diagram name="振动润滑异常诊断流程图" id="flowchart1">
    <mxGraphModel dx="1000" dy="600" grid="1" gridSize="10" guides="1" tooltips="1" connect="1" arrows="1" fold="1" page="1" pageScale="1" pageWidth="827" pageHeight="1169" math="0" shadow="0">
      <root>
        <mxCell id="0" />
        <mxCell id="1" parent="0" />
        
        <!-- 振动数据采集 -->
        <mxCell id="2" value="振动数据采集" style="rounded=1;fillColor=#8CC6FF;fontSize=14;fontColor=#000000;" vertex="1" parent="1">
          <mxGeometry x="40" y="40" width="160" height="60" as="geometry" />
        </mxCell>
        
        <!-- 预处理模块 -->
        <mxCell id="3" value="预处理模块" style="rounded=1;fillColor=#A2D39C;fontSize=14;fontColor=#000000;" vertex="1" parent="1">
          <mxGeometry x="240" y="40" width="160" height="60" as="geometry" />
        </mxCell>
        
        <!-- 特征提取 -->
        <mxCell id="4" value="特征提取" style="rounded=1;fillColor=#FFE066;fontSize=14;fontColor=#000000;" vertex="1" parent="1">
          <mxGeometry x="440" y="40" width="160" height="60" as="geometry" />
        </mxCell>
        
        <!-- 数据存储 -->
        <mxCell id="5" value="数据存储" style="rounded=1;fillColor=#FFB347;fontSize=14;fontColor=#000000;" vertex="1" parent="1">
          <mxGeometry x="640" y="40" width="160" height="60" as="geometry" />
        </mxCell>
        
        <!-- 诊断模块 -->
        <mxCell id="6" value="诊断模块" style="rounded=1;fillColor=#FF6961;fontSize=14;fontColor=#000000;" vertex="1" parent="1">
          <mxGeometry x="840" y="40" width="160" height="60" as="geometry" />
        </mxCell>
        
        <!-- 加油/告警决策 -->
        <mxCell id="7" value="加油/告警决策" style="rounded=1;fillColor=#CBAACB;fontSize=14;fontColor=#000000;" vertex="1" parent="1">
          <mxGeometry x="1040" y="40" width="180" height="60" as="geometry" />
        </mxCell>
        
        <!-- 统计分析 -->
        <mxCell id="8" value="统计分析" style="rounded=1;fillColor=#79C7E3;fontSize=14;fontColor=#000000;" vertex="1" parent="1">
          <mxGeometry x="1240" y="40" width="140" height="60" as="geometry" />
        </mxCell>
        
        <!-- 优化特征与模型 -->
        <mxCell id="9" value="优化特征与模型" style="rounded=1;fillColor=#FDC68A;fontSize=14;fontColor=#000000;" vertex="1" parent="1">
          <mxGeometry x="1440" y="40" width="180" height="60" as="geometry" />
        </mxCell>
        
        <!-- 箭头连接 -->
        <mxCell id="10" style="edgeStyle=orthogonalEdgeStyle;endArrow=block;strokeWidth=2;" edge="1" parent="1" source="2" target="3">
          <mxGeometry relative="1" as="geometry" />
        </mxCell>
        
        <mxCell id="11" style="edgeStyle=orthogonalEdgeStyle;endArrow=block;strokeWidth=2;" edge="1" parent="1" source="3" target="4">
          <mxGeometry relative="1" as="geometry" />
        </mxCell>
        
        <mxCell id="12" style="edgeStyle=orthogonalEdgeStyle;endArrow=block;strokeWidth=2;" edge="1" parent="1" source="4" target="5">
          <mxGeometry relative="1" as="geometry" />
        </mxCell>
        
        <mxCell id="13" style="edgeStyle=orthogonalEdgeStyle;endArrow=block;strokeWidth=2;" edge="1" parent="1" source="5" target="6">
          <mxGeometry relative="1" as="geometry" />
        </mxCell>
        
        <mxCell id="14" style="edgeStyle=orthogonalEdgeStyle;endArrow=block;strokeWidth=2;" edge="1" parent="1" source="6" target="7">
          <mxGeometry relative="1" as="geometry" />
        </mxCell>
        
        <mxCell id="15" style="edgeStyle=orthogonalEdgeStyle;endArrow=block;strokeWidth=2;" edge="1" parent="1" source="7" target="8">
          <mxGeometry relative="1" as="geometry" />
        </mxCell>
        
        <mxCell id="16" style="edgeStyle=orthogonalEdgeStyle;endArrow=block;strokeWidth=2;" edge="1" parent="1" source="8" target="9">
          <mxGeometry relative="1" as="geometry" />
        </mxCell>
        
      </root>
    </mxGraphModel>
  </diagram>
</mxfile>
